<?xml version="1.0" encoding="utf-8"?>
<!-- Generator: Adobe Illustrator 16.2.0, SVG Export Plug-In . SVG Version: 6.00 Build 0)  -->
<svg version="1.2" baseProfile="tiny" id="Layer_1" xmlns="http://www.w3.org/2000/svg" xmlns:xlink="http://www.w3.org/1999/xlink"
	 x="0px" y="0px" width="39.333px" height="33.113px" viewBox="0 0 39.333 33.113" xml:space="preserve">
<g>
	<path fill="#5CA1D9" d="M28.212,13.087c-0.061-4.448-3.699-8.048-8.16-8.048c-1.986,0-3.896,0.722-5.385,2.033
		c-1.328,1.17-2.236,2.733-2.594,4.45c-0.027,0-0.052-0.001-0.08-0.001c-3.813,0-6.914,3.102-6.914,6.914s3.102,6.914,6.914,6.914
		h4.83c0.344,0,0.621-0.278,0.621-0.622s-0.277-0.622-0.621-0.622h-4.83c-3.125,0-5.668-2.543-5.668-5.67
		c0-3.125,2.543-5.669,5.668-5.669c0.168,0,0.344,0.009,0.539,0.026c0.332,0.031,0.629-0.204,0.674-0.534
		c0.225-1.643,1.035-3.153,2.283-4.253c1.26-1.111,2.881-1.723,4.561-1.723c3.816,0,6.92,3.104,6.92,6.917
		c0,0.138-0.012,0.278-0.023,0.429l-0.004,0.063c-0.012,0.183,0.057,0.362,0.188,0.49s0.313,0.19,0.494,0.173
		c0.166-0.017,0.334-0.025,0.498-0.025c2.695,0,4.887,2.193,4.887,4.888c0,2.695-2.191,4.888-4.887,4.888h-5.076
		c-0.344,0-0.623,0.278-0.623,0.622s0.279,0.622,0.623,0.622h5.076c3.381,0,6.133-2.75,6.133-6.132
		C34.255,15.868,31.552,13.135,28.212,13.087"/>
	<path fill="#5CA1D9" d="M20.052,9.208c0.344,0,0.621-0.278,0.621-0.622c0-0.343-0.277-0.622-0.621-0.622
		c-2.602,0-4.83,1.945-5.18,4.522c-0.047,0.341,0.192,0.653,0.532,0.7c0.028,0.004,0.056,0.006,0.084,0.006
		c0.306,0,0.573-0.226,0.617-0.537C16.372,10.69,18.069,9.208,20.052,9.208"/>
	<path fill="#5CA1D9" d="M22.466,21.292c0.172,0,0.342-0.069,0.465-0.208c0.229-0.256,0.207-0.648-0.051-0.878l-2.262-2.022
		c-0.391-0.348-0.979-0.348-1.369,0l-2.263,2.022c-0.256,0.229-0.278,0.622-0.05,0.878s0.621,0.279,0.879,0.05l1.496-1.337v7.654
		c0,0.344,0.277,0.622,0.623,0.622c0.343,0,0.621-0.278,0.621-0.622v-7.654l1.496,1.337C22.171,21.241,22.319,21.292,22.466,21.292"
		/>
</g>
</svg>
