<?xml version="1.0" encoding="utf-8"?>
<!-- Generator: Adobe Illustrator 16.2.0, SVG Export Plug-In . SVG Version: 6.00 Build 0)  -->
<svg version="1.2" baseProfile="tiny" id="Layer_1" xmlns="http://www.w3.org/2000/svg" xmlns:xlink="http://www.w3.org/1999/xlink"
	 x="0px" y="0px" width="30px" height="30px" viewBox="0 0 30 30" xml:space="preserve">
<g>
	<g>
		<path fill="none" d="M19.852,9.215h1.319l-2.689-2.59h-0.004v1.212C18.478,8.6,19.097,9.215,19.852,9.215z"/>
		<path fill="none" d="M9.359,24.095h11.282c0.76,0,1.377-0.62,1.377-1.378V10.345h-2.166c-1.38,0-2.511-1.129-2.511-2.511V5.852
			H9.359c-0.761,0-1.379,0.623-1.379,1.378v15.487C7.98,23.481,8.601,24.095,9.359,24.095z M15.908,20.502h0.104
			c0.229,0,0.288-0.082,0.288-0.381c0-0.294-0.021-0.556-0.021-0.888c0-0.414,0.131-0.572,0.403-0.637v-0.022
			c-0.272-0.065-0.403-0.223-0.403-0.637c0-0.333,0.021-0.594,0.021-0.888c0-0.299-0.06-0.381-0.288-0.381h-0.104v-0.425h0.343
			c0.479,0,0.697,0.186,0.697,0.774c0,0.387-0.055,0.588-0.055,0.931c0,0.191,0.114,0.393,0.469,0.403v0.468
			c-0.354,0.011-0.469,0.212-0.469,0.403c0,0.343,0.055,0.544,0.055,0.932c0,0.588-0.218,0.773-0.697,0.773h-0.343V20.502z
			 M12.866,18.351c0.354-0.011,0.469-0.212,0.469-0.403c0-0.343-0.055-0.544-0.055-0.931c0-0.588,0.218-0.774,0.697-0.774h0.343
			v0.425h-0.104c-0.223,0-0.288,0.082-0.288,0.381c0,0.294,0.021,0.556,0.021,0.888c0,0.414-0.131,0.572-0.403,0.637v0.022
			c0.272,0.065,0.403,0.223,0.403,0.637c0,0.333-0.021,0.594-0.021,0.888c0,0.299,0.065,0.381,0.288,0.381h0.104v0.425h-0.343
			c-0.479,0-0.697-0.186-0.697-0.773c0-0.387,0.055-0.588,0.055-0.932c0-0.191-0.114-0.392-0.469-0.403V18.351z"/>
		<path fill="#662D90" d="M9.359,25.229h11.285c1.362,0,2.475-1.097,2.507-2.455V9.753c-0.011-0.142-0.068-0.282-0.169-0.385
			l-4.677-4.486c-0.108-0.104-0.247-0.161-0.395-0.161H9.359c-1.387,0-2.516,1.13-2.516,2.512v15.484
			C6.843,24.102,7.972,25.229,9.359,25.229z M18.478,6.625h0.004l2.689,2.59h-1.319c-0.755,0-1.374-0.615-1.374-1.378V6.625z
			 M7.98,7.229c0-0.755,0.618-1.378,1.379-1.378h7.982v1.982c0,1.382,1.131,2.511,2.511,2.511h2.166v12.372
			c0,0.758-0.617,1.378-1.377,1.378H9.359c-0.758,0-1.379-0.613-1.379-1.378V7.229z"/>
		<path fill="#662D90" d="M16.948,20.154c0-0.387-0.055-0.588-0.055-0.932c0-0.191,0.114-0.392,0.469-0.403v-0.468
			c-0.354-0.011-0.469-0.212-0.469-0.403c0-0.343,0.055-0.544,0.055-0.931c0-0.588-0.218-0.774-0.697-0.774h-0.343v0.425h0.104
			c0.229,0,0.288,0.082,0.288,0.381c0,0.294-0.021,0.556-0.021,0.888c0,0.414,0.131,0.572,0.403,0.637v0.022
			c-0.272,0.065-0.403,0.223-0.403,0.637c0,0.333,0.021,0.594,0.021,0.888c0,0.299-0.06,0.381-0.288,0.381h-0.104v0.425h0.343
			C16.73,20.927,16.948,20.742,16.948,20.154z"/>
		<path fill="#662D90" d="M13.334,19.222c0,0.343-0.055,0.544-0.055,0.932c0,0.588,0.218,0.773,0.697,0.773h0.343v-0.425h-0.104
			c-0.223,0-0.288-0.082-0.288-0.381c0-0.294,0.021-0.556,0.021-0.888c0-0.414-0.131-0.572-0.403-0.637v-0.022
			c0.272-0.065,0.403-0.223,0.403-0.637c0-0.333-0.021-0.594-0.021-0.888c0-0.299,0.065-0.381,0.288-0.381h0.104v-0.425h-0.343
			c-0.479,0-0.697,0.186-0.697,0.774c0,0.387,0.055,0.588,0.055,0.931c0,0.191-0.114,0.393-0.469,0.403v0.468
			C13.22,18.83,13.334,19.031,13.334,19.222z"/>
	</g>
</g>
</svg>
