<?xml version="1.0" encoding="utf-8"?>
<!-- Generator: Adobe Illustrator 16.2.0, SVG Export Plug-In . SVG Version: 6.00 Build 0)  -->
<svg version="1.2" baseProfile="tiny" id="Layer_1" xmlns="http://www.w3.org/2000/svg" xmlns:xlink="http://www.w3.org/1999/xlink"
	 x="0px" y="0px" width="30px" height="30px" viewBox="0 0 30 30" xml:space="preserve">
<g>
	<g>
		<path fill="none" d="M19.227,19.718c0.174,0,0.319-0.077,0.471-0.25v-1.045c-0.155-0.137-0.306-0.187-0.457-0.187
			c-0.287,0-0.52,0.269-0.52,0.739C18.721,19.458,18.904,19.718,19.227,19.718z"/>
		<path fill="none" d="M15.065,19.723c0.328,0,0.529-0.297,0.529-0.744c0-0.452-0.201-0.749-0.529-0.749s-0.524,0.297-0.524,0.749
			C14.541,19.426,14.737,19.723,15.065,19.723z"/>
		<path fill="none" d="M19.854,9.211h1.32L18.48,6.622h-0.005v1.212C18.475,8.598,19.097,9.211,19.854,9.211z"/>
		<path fill="none" d="M9.356,24.095h11.282c0.763,0,1.382-0.62,1.382-1.38v-12.37h-2.166c-1.385,0-2.508-1.129-2.508-2.513V5.853
			h-7.99c-0.762,0-1.374,0.619-1.374,1.376v15.486C7.982,23.479,8.599,24.095,9.356,24.095z M19.127,17.802
			c0.255,0,0.415,0.096,0.588,0.247l-0.018-0.361v-0.812h0.524v3.221h-0.434l-0.036-0.242h-0.019
			c-0.164,0.164-0.393,0.296-0.634,0.296c-0.562,0-0.922-0.434-0.922-1.172C18.178,18.25,18.639,17.802,19.127,17.802z
			 M16.657,17.857h0.434l0.036,0.397h0.019c0.159-0.292,0.396-0.452,0.634-0.452c0.114,0,0.188,0.014,0.256,0.046l-0.091,0.456
			c-0.078-0.023-0.138-0.037-0.233-0.037c-0.178,0-0.393,0.123-0.529,0.461v1.369h-0.524V17.857z M15.065,17.802
			c0.562,0,1.067,0.429,1.067,1.177c0,0.744-0.506,1.172-1.067,1.172c-0.557,0-1.063-0.429-1.063-1.172
			C14.002,18.231,14.508,17.802,15.065,17.802z M10.786,17.113l0.26,1.506c0.051,0.319,0.101,0.639,0.146,0.953h0.019
			c0.063-0.314,0.127-0.639,0.195-0.953l0.365-1.506h0.461l0.365,1.506c0.068,0.31,0.132,0.634,0.2,0.953h0.019
			c0.046-0.319,0.096-0.639,0.142-0.953l0.26-1.506h0.507l-0.57,2.984h-0.657l-0.369-1.569c-0.051-0.233-0.097-0.461-0.133-0.689
			h-0.019c-0.041,0.228-0.086,0.456-0.137,0.689l-0.36,1.569h-0.644l-0.593-2.984H10.786z"/>
		<path fill="#305698" d="M9.356,25.231h11.288c1.374,0,2.494-1.114,2.51-2.488V9.766c-0.006-0.146-0.065-0.292-0.175-0.399
			l-4.674-4.487c-0.106-0.101-0.248-0.16-0.395-0.16H9.356c-1.382,0-2.513,1.13-2.513,2.515v15.481
			C6.843,24.103,7.974,25.231,9.356,25.231z M18.475,6.622h0.005l2.694,2.589h-1.32c-0.757,0-1.379-0.613-1.379-1.377V6.622z
			 M7.982,7.229c0-0.757,0.612-1.376,1.374-1.376h7.99v1.979c0,1.384,1.123,2.513,2.508,2.513h2.166v12.37
			c0,0.76-0.619,1.38-1.382,1.38H9.356c-0.757,0-1.374-0.616-1.374-1.38V7.229z"/>
		<path fill="#305698" d="M15.065,20.152c0.562,0,1.067-0.429,1.067-1.172c0-0.749-0.506-1.177-1.067-1.177
			c-0.557,0-1.063,0.429-1.063,1.177C14.002,19.723,14.508,20.152,15.065,20.152z M15.065,18.231c0.328,0,0.529,0.297,0.529,0.749
			c0,0.447-0.201,0.744-0.529,0.744s-0.524-0.297-0.524-0.744C14.541,18.528,14.737,18.231,15.065,18.231z"/>
		<path fill="#305698" d="M11.479,20.097l0.36-1.569c0.051-0.233,0.096-0.461,0.137-0.689h0.019
			c0.036,0.228,0.082,0.456,0.133,0.689l0.369,1.569h0.657l0.57-2.984h-0.507l-0.26,1.506c-0.046,0.314-0.096,0.634-0.142,0.953
			h-0.019c-0.068-0.319-0.132-0.643-0.2-0.953l-0.365-1.506h-0.461l-0.365,1.506c-0.068,0.314-0.132,0.639-0.195,0.953h-0.019
			c-0.046-0.314-0.096-0.634-0.146-0.953l-0.26-1.506h-0.543l0.593,2.984H11.479z"/>
		<path fill="#305698" d="M17.181,18.729c0.137-0.338,0.352-0.461,0.529-0.461c0.096,0,0.155,0.014,0.233,0.037l0.091-0.456
			c-0.068-0.032-0.142-0.046-0.256-0.046c-0.237,0-0.475,0.16-0.634,0.452h-0.019l-0.036-0.397h-0.434v2.24h0.524V18.729z"/>
		<path fill="#305698" d="M19.1,20.152c0.241,0,0.47-0.132,0.634-0.296h0.019l0.036,0.242h0.434v-3.221h-0.524v0.812l0.018,0.361
			c-0.173-0.151-0.333-0.247-0.588-0.247c-0.488,0-0.949,0.447-0.949,1.177C18.178,19.718,18.539,20.152,19.1,20.152z
			 M19.241,18.236c0.151,0,0.302,0.05,0.457,0.187v1.045c-0.151,0.173-0.297,0.25-0.471,0.25c-0.323,0-0.506-0.26-0.506-0.744
			C18.721,18.505,18.954,18.236,19.241,18.236z"/>
	</g>
</g>
</svg>
