<?xml version="1.0" encoding="utf-8"?>
<!-- Generator: Adobe Illustrator 16.2.0, SVG Export Plug-In . SVG Version: 6.00 Build 0)  -->
<svg version="1.2" baseProfile="tiny" id="Layer_1" xmlns="http://www.w3.org/2000/svg" xmlns:xlink="http://www.w3.org/1999/xlink"
	 x="0px" y="0px" width="30px" height="30px" viewBox="0 0 30 30" xml:space="preserve">
<g>
	<g>
		<path fill="none" d="M19.854,9.211h1.32l-2.691-2.589h-0.006v1.212C18.477,8.598,19.1,9.211,19.854,9.211z"/>
		<path fill="none" d="M9.357,24.095h11.283c0.756,0,1.373-0.62,1.373-1.38v-12.37h-2.16c-1.385,0-2.514-1.129-2.514-2.513V5.853
			H9.357c-0.76,0-1.375,0.619-1.375,1.376v15.486C7.982,23.479,8.604,24.095,9.357,24.095z M17.273,18.938
			c-0.354-0.131-0.752-0.333-0.752-0.779c0-0.468,0.377-0.801,0.977-0.801c0.369,0,0.67,0.153,0.887,0.322l-0.289,0.381
			c-0.184-0.136-0.375-0.229-0.588-0.229c-0.266,0-0.393,0.125-0.393,0.294c0,0.213,0.268,0.294,0.557,0.398
			c0.365,0.136,0.768,0.311,0.768,0.812c0,0.458-0.365,0.828-1.041,0.828c-0.363,0-0.75-0.158-1.012-0.371l0.293-0.403
			c0.24,0.185,0.469,0.299,0.742,0.299c0.287,0,0.424-0.136,0.424-0.321C17.846,19.145,17.557,19.046,17.273,18.938z M15.178,16.252
			h0.627v3.192c0,0.153,0.07,0.207,0.137,0.207l0.098-0.011l0.082,0.468c-0.076,0.033-0.186,0.055-0.332,0.055
			c-0.447,0-0.611-0.289-0.611-0.752V16.252z M12.295,17.423h0.676l0.299,0.507c0.076,0.147,0.164,0.305,0.246,0.452h0.021
			c0.066-0.147,0.143-0.305,0.207-0.452L14,17.423h0.648l-0.789,1.351l0.85,1.324h-0.676l-0.326-0.528
			c-0.088-0.158-0.18-0.321-0.273-0.474h-0.021c-0.076,0.153-0.158,0.311-0.234,0.474l-0.283,0.528H12.24l0.85-1.395L12.295,17.423z
			 M11.42,19.313c0.229,0,0.404,0.18,0.404,0.425s-0.176,0.425-0.404,0.425s-0.408-0.18-0.408-0.425S11.191,19.313,11.42,19.313z"/>
		<path fill="#41723B" d="M9.357,25.231h11.283c1.371,0,2.49-1.108,2.512-2.478V9.761c-0.008-0.145-0.065-0.288-0.172-0.395
			l-4.676-4.487c-0.105-0.101-0.242-0.16-0.396-0.16H9.357c-1.381,0-2.514,1.13-2.514,2.515v15.481
			C6.844,24.103,7.977,25.231,9.357,25.231z M18.477,6.622h0.006l2.691,2.589h-1.32c-0.754,0-1.377-0.613-1.377-1.377V6.622z
			 M7.982,7.229c0-0.757,0.615-1.376,1.375-1.376h7.982v1.979c0,1.384,1.129,2.513,2.514,2.513h2.16v12.37
			c0,0.76-0.617,1.38-1.373,1.38H9.357c-0.754,0-1.375-0.616-1.375-1.38V7.229z"/>
		<path fill="#41723B" d="M12.895,20.098l0.283-0.528c0.076-0.164,0.158-0.321,0.234-0.474h0.021
			c0.094,0.153,0.186,0.316,0.273,0.474l0.326,0.528h0.676l-0.85-1.324l0.789-1.351H14l-0.256,0.507
			c-0.064,0.147-0.141,0.305-0.207,0.452h-0.021c-0.082-0.147-0.17-0.305-0.246-0.452l-0.299-0.507h-0.676l0.795,1.28l-0.85,1.395
			H12.895z"/>
		<path fill="#41723B" d="M11.42,20.163c0.229,0,0.404-0.18,0.404-0.425s-0.176-0.425-0.404-0.425s-0.408,0.18-0.408,0.425
			S11.191,20.163,11.42,20.163z"/>
		<path fill="#41723B" d="M17.422,19.689c-0.273,0-0.502-0.114-0.742-0.299l-0.293,0.403c0.262,0.212,0.648,0.371,1.012,0.371
			c0.676,0,1.041-0.371,1.041-0.828c0-0.501-0.402-0.675-0.768-0.812c-0.289-0.104-0.557-0.185-0.557-0.398
			c0-0.168,0.127-0.294,0.393-0.294c0.213,0,0.404,0.093,0.588,0.229l0.289-0.381c-0.217-0.169-0.518-0.322-0.887-0.322
			c-0.6,0-0.977,0.333-0.977,0.801c0,0.447,0.398,0.648,0.752,0.779c0.283,0.109,0.572,0.207,0.572,0.43
			C17.846,19.553,17.709,19.689,17.422,19.689z"/>
		<path fill="#41723B" d="M15.789,20.163c0.146,0,0.256-0.022,0.332-0.055l-0.082-0.468l-0.098,0.011
			c-0.066,0-0.137-0.054-0.137-0.207v-3.192h-0.627v3.159C15.178,19.875,15.342,20.163,15.789,20.163z"/>
	</g>
</g>
</svg>
