<?xml version="1.0" encoding="utf-8"?>
<!-- Generator: Adobe Illustrator 16.2.0, SVG Export Plug-In . SVG Version: 6.00 Build 0)  -->
<svg version="1.2" baseProfile="tiny" id="Layer_1" xmlns="http://www.w3.org/2000/svg" xmlns:xlink="http://www.w3.org/1999/xlink"
	 x="0px" y="0px" width="30px" height="30px" viewBox="0 0 30 30" xml:space="preserve">
<g>
	<g>
		<path fill="none" d="M16.408,18.725c0-0.534-0.174-0.85-0.577-0.85c-0.196,0-0.381,0.098-0.588,0.3v1.248
			c0.196,0.163,0.381,0.223,0.539,0.223C16.137,19.646,16.408,19.33,16.408,18.725z"/>
		<path fill="none" d="M19.857,9.211h1.317l-2.692-2.589h-0.007v1.212C18.476,8.598,19.098,9.211,19.857,9.211z"/>
		<path fill="none" d="M13.34,18.725c0-0.534-0.174-0.85-0.577-0.85c-0.196,0-0.381,0.098-0.588,0.3v1.248
			c0.196,0.163,0.381,0.223,0.539,0.223C13.068,19.646,13.34,19.33,13.34,18.725z"/>
		<path fill="none" d="M9.359,24.095h11.273c0.766,0,1.385-0.62,1.385-1.38v-12.37h-2.16c-1.388,0-2.521-1.129-2.521-2.513V5.853
			H9.359c-0.763,0-1.382,0.619-1.382,1.376v15.486C7.978,23.479,8.603,24.095,9.359,24.095z M17.276,17.45l0.413-0.027l0.077-0.73
			h0.522v0.73h0.681v0.496h-0.681v1.274c0,0.316,0.12,0.469,0.376,0.469c0.093,0,0.201-0.027,0.277-0.06l0.109,0.463
			c-0.147,0.049-0.332,0.098-0.545,0.098c-0.621,0-0.85-0.392-0.85-0.97v-1.274h-0.381V17.45z M14.616,17.423h0.518l0.044,0.283
			h0.021c0.224-0.19,0.512-0.349,0.807-0.349c0.664,0,1.051,0.534,1.051,1.362c0,0.916-0.55,1.444-1.144,1.444
			c-0.234,0-0.469-0.109-0.687-0.294l0.017,0.447v0.839h-0.627V17.423z M11.548,17.423h0.518l0.044,0.283h0.021
			c0.224-0.19,0.512-0.349,0.807-0.349c0.664,0,1.051,0.534,1.051,1.362c0,0.916-0.55,1.444-1.144,1.444
			c-0.234,0-0.469-0.109-0.687-0.294l0.017,0.447v0.839h-0.627V17.423z M10.406,19.313c0.229,0,0.403,0.18,0.403,0.425
			s-0.175,0.425-0.403,0.425s-0.409-0.18-0.409-0.425S10.178,19.313,10.406,19.313z"/>
		<path fill="#E79E25" d="M9.359,25.231h11.284c1.372,0,2.495-1.114,2.511-2.488V9.766c-0.007-0.147-0.07-0.292-0.175-0.4
			l-4.674-4.487c-0.105-0.101-0.245-0.16-0.396-0.16h-8.55c-1.388,0-2.517,1.13-2.517,2.515v15.481
			C6.843,24.103,7.972,25.231,9.359,25.231z M18.476,6.622h0.007l2.692,2.589h-1.317c-0.76,0-1.382-0.613-1.382-1.377V6.622z
			 M7.978,7.229c0-0.757,0.619-1.376,1.382-1.376h7.977v1.979c0,1.384,1.134,2.513,2.521,2.513h2.16v12.37
			c0,0.76-0.619,1.38-1.385,1.38H9.359c-0.757,0-1.382-0.616-1.382-1.38V7.229z"/>
		<path fill="#E79E25" d="M12.175,20.315l-0.017-0.447c0.218,0.186,0.452,0.294,0.687,0.294c0.594,0,1.144-0.528,1.144-1.444
			c0-0.828-0.387-1.362-1.051-1.362c-0.295,0-0.583,0.158-0.807,0.349h-0.021l-0.044-0.283h-0.518v3.731h0.627V20.315z
			 M12.175,18.175c0.207-0.202,0.392-0.3,0.588-0.3c0.403,0,0.577,0.316,0.577,0.85c0,0.604-0.271,0.92-0.626,0.92
			c-0.158,0-0.343-0.06-0.539-0.223V18.175z"/>
		<path fill="#E79E25" d="M10.406,20.163c0.229,0,0.403-0.18,0.403-0.425s-0.175-0.425-0.403-0.425s-0.409,0.18-0.409,0.425
			S10.178,20.163,10.406,20.163z"/>
		<path fill="#E79E25" d="M15.243,20.315l-0.017-0.447c0.218,0.186,0.452,0.294,0.687,0.294c0.594,0,1.144-0.528,1.144-1.444
			c0-0.828-0.387-1.362-1.051-1.362c-0.295,0-0.583,0.158-0.807,0.349h-0.021l-0.044-0.283h-0.518v3.731h0.627V20.315z
			 M15.243,18.175c0.207-0.202,0.392-0.3,0.588-0.3c0.403,0,0.577,0.316,0.577,0.85c0,0.604-0.271,0.92-0.626,0.92
			c-0.158,0-0.343-0.06-0.539-0.223V18.175z"/>
		<path fill="#E79E25" d="M17.657,19.193c0,0.578,0.229,0.97,0.85,0.97c0.213,0,0.397-0.049,0.545-0.098l-0.109-0.463
			c-0.076,0.033-0.185,0.06-0.277,0.06c-0.256,0-0.376-0.153-0.376-0.469v-1.274h0.681v-0.496h-0.681v-0.73h-0.522l-0.077,0.73
			l-0.413,0.027v0.469h0.381V19.193z"/>
	</g>
</g>
</svg>
