<?xml version="1.0" encoding="utf-8"?>
<!-- Generator: Adobe Illustrator 16.2.0, SVG Export Plug-In . SVG Version: 6.00 Build 0)  -->
<svg version="1.2" baseProfile="tiny" id="Layer_1" xmlns="http://www.w3.org/2000/svg" xmlns:xlink="http://www.w3.org/1999/xlink"
	 x="0px" y="0px" width="30px" height="30px" viewBox="0 0 30 30" xml:space="preserve">
<g>
	<g>
		<path fill="none" d="M13.508,17.841c-0.314,0-0.588,0.234-0.643,0.665h1.188C14.053,18.092,13.873,17.841,13.508,17.841z"/>
		<path fill="none" d="M19.854,9.211h1.322L18.48,6.622h-0.002v1.212C18.479,8.598,19.094,9.211,19.854,9.211z"/>
		<path fill="none" d="M9.361,24.095h11.279c0.762,0,1.375-0.62,1.375-1.38v-12.37h-2.162c-1.389,0-2.514-1.129-2.514-2.513V5.853
			H9.361c-0.766,0-1.381,0.619-1.381,1.376v15.486C7.98,23.479,8.602,24.095,9.361,24.095z M17.326,17.449l0.412-0.027l0.078-0.73
			h0.521v0.73h0.682v0.496h-0.682v1.274c0,0.316,0.121,0.469,0.377,0.469c0.092,0,0.201-0.027,0.277-0.06l0.109,0.463
			c-0.148,0.049-0.332,0.098-0.545,0.098c-0.621,0-0.85-0.392-0.85-0.97v-1.274h-0.381V17.449z M14.867,17.422h0.676l0.299,0.507
			c0.076,0.147,0.164,0.305,0.244,0.452h0.023c0.064-0.147,0.141-0.305,0.207-0.452l0.256-0.507h0.648l-0.791,1.351l0.85,1.324
			h-0.676l-0.326-0.528c-0.088-0.158-0.18-0.321-0.271-0.474h-0.023c-0.076,0.153-0.156,0.311-0.232,0.474l-0.285,0.528h-0.652
			l0.85-1.395L14.867,17.422z M13.492,17.356c0.725,0,1.105,0.523,1.105,1.27c0,0.12-0.01,0.24-0.027,0.305h-1.699
			c0.055,0.474,0.359,0.746,0.789,0.746c0.23,0,0.426-0.071,0.621-0.196l0.213,0.393c-0.256,0.168-0.578,0.289-0.914,0.289
			c-0.742,0-1.318-0.518-1.318-1.4C12.262,17.891,12.865,17.356,13.492,17.356z M10.27,17.449l0.414-0.027l0.076-0.73h0.523v0.73
			h0.68v0.496h-0.68v1.274c0,0.316,0.119,0.469,0.375,0.469c0.094,0,0.201-0.027,0.277-0.06l0.109,0.463
			c-0.146,0.049-0.332,0.098-0.545,0.098c-0.621,0-0.85-0.392-0.85-0.97v-1.274H10.27V17.449z"/>
		<path fill="#5CA1D9" d="M9.361,25.231h11.279c1.369,0,2.479-1.098,2.51-2.458V9.752c-0.012-0.142-0.065-0.281-0.164-0.386
			l-4.682-4.487c-0.105-0.101-0.246-0.16-0.396-0.16H9.361c-1.385,0-2.518,1.13-2.518,2.515v15.481
			C6.844,24.103,7.977,25.231,9.361,25.231z M18.479,6.622h0.002l2.695,2.589h-1.322c-0.76,0-1.375-0.613-1.375-1.377V6.622z
			 M7.98,7.229c0-0.757,0.615-1.376,1.381-1.376h7.979v1.979c0,1.384,1.125,2.513,2.514,2.513h2.162v12.37
			c0,0.76-0.613,1.38-1.375,1.38H9.361c-0.76,0-1.381-0.616-1.381-1.38V7.229z"/>
		<path fill="#5CA1D9" d="M10.65,19.192c0,0.578,0.229,0.97,0.85,0.97c0.213,0,0.398-0.049,0.545-0.098l-0.109-0.463
			c-0.076,0.033-0.184,0.06-0.277,0.06c-0.256,0-0.375-0.153-0.375-0.469v-1.274h0.68v-0.496h-0.68v-0.73H10.76l-0.076,0.73
			l-0.414,0.027v0.469h0.381V19.192z"/>
		<path fill="#5CA1D9" d="M13.58,20.162c0.336,0,0.658-0.12,0.914-0.289l-0.213-0.393c-0.195,0.125-0.391,0.196-0.621,0.196
			c-0.43,0-0.734-0.272-0.789-0.746h1.699c0.018-0.065,0.027-0.186,0.027-0.305c0-0.747-0.381-1.27-1.105-1.27
			c-0.627,0-1.23,0.534-1.23,1.406C12.262,19.645,12.838,20.162,13.58,20.162z M13.508,17.841c0.365,0,0.545,0.25,0.545,0.665
			h-1.188C12.92,18.076,13.193,17.841,13.508,17.841z"/>
		<path fill="#5CA1D9" d="M15.465,20.097l0.285-0.528c0.076-0.164,0.156-0.321,0.232-0.474h0.023
			c0.092,0.153,0.184,0.316,0.271,0.474l0.326,0.528h0.676l-0.85-1.324l0.791-1.351h-0.648l-0.256,0.507
			c-0.066,0.147-0.143,0.305-0.207,0.452h-0.023c-0.08-0.147-0.168-0.305-0.244-0.452l-0.299-0.507h-0.676l0.795,1.28l-0.85,1.395
			H15.465z"/>
		<path fill="#5CA1D9" d="M17.707,19.192c0,0.578,0.229,0.97,0.85,0.97c0.213,0,0.396-0.049,0.545-0.098l-0.109-0.463
			c-0.076,0.033-0.186,0.06-0.277,0.06c-0.256,0-0.377-0.153-0.377-0.469v-1.274h0.682v-0.496h-0.682v-0.73h-0.521l-0.078,0.73
			l-0.412,0.027v0.469h0.381V19.192z"/>
	</g>
</g>
</svg>
