<?xml version="1.0" encoding="utf-8"?>
<!-- Generator: Adobe Illustrator 16.2.0, SVG Export Plug-In . SVG Version: 6.00 Build 0)  -->
<svg version="1.2" baseProfile="tiny" id="Layer_1" xmlns="http://www.w3.org/2000/svg" xmlns:xlink="http://www.w3.org/1999/xlink"
	 x="0px" y="0px" width="30px" height="30px" viewBox="0 0 30 30" xml:space="preserve">
<g>
	<g>
		<path fill="none" d="M10.605,17.875c-0.196,0-0.381,0.098-0.588,0.3v1.248c0.196,0.163,0.381,0.223,0.539,0.223
			c0.354,0,0.626-0.316,0.626-0.92C11.183,18.19,11.009,17.875,10.605,17.875z"/>
		<path fill="none" d="M12.944,18.757c0,0.577,0.218,0.888,0.604,0.888c0.207,0,0.381-0.093,0.561-0.3v-1.247
			c-0.185-0.164-0.364-0.224-0.544-0.224C13.222,17.875,12.944,18.196,12.944,18.757z"/>
		<path fill="none" d="M17.7,9.21h1.317l-2.688-2.588H16.32v1.212C16.32,8.597,16.943,9.21,17.7,9.21z"/>
		<path fill="none" d="M15.184,7.832V5.853H7.202c-0.76,0-1.374,0.619-1.374,1.375v15.487c0,0.764,0.614,1.379,1.374,1.379h11.279
			c0.762,0,1.379-0.619,1.379-1.379v-12.37H17.7C16.31,10.345,15.184,9.216,15.184,7.832z M8.249,20.163
			c-0.229,0-0.409-0.18-0.409-0.425s0.181-0.425,0.409-0.425s0.403,0.18,0.403,0.425S8.478,20.163,8.249,20.163z M10.688,20.163
			c-0.234,0-0.469-0.109-0.687-0.294l0.017,0.447v0.839H9.391v-3.731h0.518l0.044,0.283h0.021c0.224-0.19,0.512-0.349,0.807-0.349
			c0.664,0,1.051,0.534,1.051,1.362C11.831,19.634,11.281,20.163,10.688,20.163z M14.736,20.097h-0.518l-0.044-0.289h-0.021
			c-0.196,0.196-0.469,0.354-0.757,0.354c-0.67,0-1.101-0.518-1.101-1.4c0-0.872,0.55-1.406,1.133-1.406
			c0.305,0,0.496,0.115,0.703,0.294l-0.022-0.43v-0.97h0.627V20.097z M16.895,16.747c-0.098-0.043-0.201-0.065-0.294-0.065
			c-0.218,0-0.338,0.142-0.338,0.452v0.289h0.523v0.496h-0.523v2.179h-0.626v-2.179h-0.359V17.45l0.359-0.027v-0.278
			c0-0.556,0.256-0.958,0.888-0.958c0.19,0,0.37,0.043,0.49,0.092L16.895,16.747z"/>
		<path fill="#D6443A" d="M16.151,4.879c-0.108-0.101-0.248-0.16-0.401-0.16H7.202c-1.382,0-2.517,1.13-2.517,2.515v15.481
			c0,1.388,1.135,2.516,2.517,2.516h11.284c1.385,0,2.514-1.128,2.514-2.516V9.779c0-0.152-0.067-0.302-0.175-0.414L16.151,4.879z
			 M16.32,6.622h0.009l2.688,2.588H17.7c-0.757,0-1.38-0.613-1.38-1.376V6.622z M19.86,22.715c0,0.76-0.617,1.379-1.379,1.379H7.202
			c-0.76,0-1.374-0.615-1.374-1.379V7.228c0-0.756,0.614-1.375,1.374-1.375h7.981v1.979c0,1.384,1.126,2.513,2.517,2.513h2.16
			V22.715z"/>
		<path fill="#D6443A" d="M15.637,17.145v0.278l-0.359,0.027v0.469h0.359v2.179h0.626v-2.179h0.523v-0.496h-0.523v-0.289
			c0-0.311,0.12-0.452,0.338-0.452c0.093,0,0.196,0.022,0.294,0.065l0.12-0.469c-0.12-0.049-0.3-0.092-0.49-0.092
			C15.893,16.186,15.637,16.589,15.637,17.145z"/>
		<path fill="#D6443A" d="M14.109,17.221l0.022,0.43c-0.207-0.18-0.398-0.294-0.703-0.294c-0.583,0-1.133,0.534-1.133,1.406
			c0,0.882,0.431,1.4,1.101,1.4c0.288,0,0.561-0.158,0.757-0.354h0.021l0.044,0.289h0.518v-3.846h-0.627V17.221z M14.109,19.345
			c-0.18,0.207-0.354,0.3-0.561,0.3c-0.387,0-0.604-0.311-0.604-0.888c0-0.562,0.277-0.883,0.621-0.883
			c0.18,0,0.359,0.06,0.544,0.224V19.345z"/>
		<path fill="#D6443A" d="M8.249,19.313c-0.229,0-0.409,0.18-0.409,0.425s0.181,0.425,0.409,0.425s0.403-0.18,0.403-0.425
			S8.478,19.313,8.249,19.313z"/>
		<path fill="#D6443A" d="M10.78,17.357c-0.295,0-0.583,0.158-0.807,0.349H9.952l-0.044-0.283H9.391v3.731h0.627v-0.839
			l-0.017-0.447c0.218,0.186,0.452,0.294,0.687,0.294c0.594,0,1.144-0.528,1.144-1.444C11.831,17.891,11.444,17.357,10.78,17.357z
			 M10.557,19.645c-0.158,0-0.343-0.06-0.539-0.223v-1.248c0.207-0.202,0.392-0.3,0.588-0.3c0.403,0,0.577,0.316,0.577,0.85
			C11.183,19.329,10.911,19.645,10.557,19.645z"/>
	</g>
</g>
</svg>
